<svg xmlns="http://www.w3.org/2000/svg" width="100" height="100" viewBox="0 0 100 100" fill="none">
<rect width="100" height="100" rx="50" fill="#EBF5F3"/>
<path d="M54.5 62.1875C53.6667 62.1875 52.875 62.0417 52.125 61.75C51.4167 61.4583 50.7708 61.0208 50.1875 60.4375C49.6042 59.8542 49.1667 59.2083 48.875 58.5C48.5833 57.75 48.4375 56.9583 48.4375 56.125V42.5625H53.5625C53.8958 42.5625 54.2083 42.5 54.5 42.375C54.8333 42.25 55.1458 42.0625 55.4375 41.8125C55.6458 41.5625 55.8125 41.2917 55.9375 41C56.1042 40.6667 56.1875 40.3125 56.1875 39.9375C56.1875 39.6042 56.1042 39.2917 55.9375 39C55.8125 38.6667 55.6458 38.3542 55.4375 38.0625C55.1458 37.8542 54.8333 37.6875 54.5 37.5625C54.2083 37.3958 53.8958 37.3125 53.5625 37.3125H48.4375V29.1875C48.4375 28.7708 48.3542 28.3958 48.1875 28.0625C48.0625 27.7292 47.8542 27.4167 47.5625 27.125C47.2708 26.8333 46.9583 26.625 46.625 26.5C46.2917 26.3333 45.9167 26.25 45.5 26.25C45.125 26.25 44.75 26.3333 44.375 26.5C44.0417 26.625 43.7292 26.8333 43.4375 27.125C43.1458 27.4167 42.9375 27.7292 42.8125 28.0625C42.6875 28.3958 42.625 28.7708 42.625 29.1875V56.125C42.625 57.7917 42.9167 59.3333 43.5 60.75C44.0833 62.125 44.9583 63.375 46.125 64.5C47.25 65.6667 48.5 66.5417 49.875 67.125C51.2917 67.7083 52.8333 68 54.5 68C54.875 68 55.2292 67.9375 55.5625 67.8125C55.8958 67.6875 56.2083 67.4792 56.5 67.1875C56.7917 66.8958 57 66.5833 57.125 66.25C57.2917 65.875 57.375 65.5 57.375 65.125C57.375 64.7083 57.2917 64.3333 57.125 64C57 63.6667 56.7917 63.3542 56.5 63.0625C56.2083 62.7708 55.8958 62.5625 55.5625 62.4375C55.2292 62.2708 54.875 62.1875 54.5 62.1875Z" fill="#A1D6CE"/>
</svg>
